<svg width="25" height="24" viewBox="0 0 25 24" fill="none" xmlns="http://www.w3.org/2000/svg">
<path d="M20.8311 7.25391V6.19922H14.3771C14.2179 5.75048 13.8618 5.39439 13.4131 5.23523V3H12.3584V5.23523C11.9097 5.39439 11.5536 5.75048 11.3944 6.19922H4.94043V7.25391H6.25879L3.88574 12.9492V13.0547C3.88574 14.5086 5.06857 15.6914 6.52246 15.6914H7.57715C9.03103 15.6914 10.2139 14.5086 10.2139 13.0547V12.9492L7.84082 7.25391H11.3944C11.5536 7.70264 11.9097 8.05874 12.3584 8.21789V15.7796C11.3119 15.9929 10.4895 16.8282 10.294 17.881C9.06981 18.1083 8.13965 19.1835 8.13965 20.4727V21H17.6319V20.4727C17.6319 19.1835 16.7017 18.1083 15.4775 17.8809C15.282 16.8281 14.4596 15.9929 13.4131 15.7796V8.21789C13.8618 8.05874 14.2179 7.70264 14.3771 7.25391H17.9307L15.5576 12.9492V13.0547C15.5576 14.5086 16.7404 15.6914 18.1943 15.6914H19.249C20.7029 15.6914 21.8857 14.5086 21.8857 13.0547V12.9492L19.5127 7.25391H20.8311ZM7.0498 8.09766L8.89551 12.5273H5.2041L7.0498 8.09766ZM7.57715 14.6367H6.52246C5.83502 14.6367 5.24882 14.1958 5.03113 13.5817H9.06848C8.85079 14.1958 8.26459 14.6367 7.57715 14.6367ZM18.7217 8.09766L20.5674 12.5273H16.876L18.7217 8.09766ZM19.249 14.6367H18.1943C17.5069 14.6367 16.9207 14.1958 16.703 13.5817H20.7404C20.5227 14.1958 19.9365 14.6367 19.249 14.6367ZM16.4868 19.9453H9.28469C9.50234 19.3314 10.0889 18.8906 10.7764 18.8906H14.9952C15.6827 18.8906 16.2691 19.3314 16.4868 19.9453ZM14.3771 17.8359H11.3944C11.6121 17.2221 12.1983 16.7812 12.8858 16.7812C13.5732 16.7812 14.1594 17.2221 14.3771 17.8359ZM12.8857 7.25391C12.595 7.25391 12.3584 7.01734 12.3584 6.72656C12.3584 6.43579 12.595 6.19922 12.8857 6.19922C13.1765 6.19922 13.4131 6.43579 13.4131 6.72656C13.4131 7.01734 13.1765 7.25391 12.8857 7.25391Z" fill="#848382"/>
</svg>
