<svg width="25" height="24" viewBox="0 0 25 24" fill="none" xmlns="http://www.w3.org/2000/svg">
<path d="M21.8857 8.36701C21.8857 7.47671 21.176 6.75239 20.3037 6.75239H17.4912V5.59428C17.4912 4.65999 16.7465 3.8999 15.8311 3.8999H9.94046C9.02502 3.8999 8.28027 4.65999 8.28027 5.59428V6.75239H5.46777C4.59544 6.75239 3.88574 7.47671 3.88574 8.36701V10.9144C3.88574 11.3891 4.0372 11.9811 4.58887 12.5618V18.4853C4.58887 19.3756 5.29857 20.0999 6.1709 20.0999H19.6006C20.4729 20.0999 21.1826 19.3756 21.1826 18.4853V12.5618C21.734 11.9814 21.8857 11.3896 21.8857 10.9144V8.36701ZM9.33496 5.59428C9.33496 5.25353 9.60658 4.97631 9.94046 4.97631H15.8311C16.1649 4.97631 16.4366 5.25353 16.4366 5.59428V6.75239H9.33496V5.59428ZM4.94043 8.36701C4.94043 8.07024 5.177 7.82881 5.46777 7.82881H20.3037C20.5945 7.82881 20.8311 8.07024 20.8311 8.36701V10.9144C20.8311 12.2387 18.3417 13.3194 14.7139 13.6025V13.1032C14.7139 12.806 14.4778 12.565 14.1865 12.565H11.585C11.2937 12.565 11.0576 12.806 11.0576 13.1032V13.6023C7.43304 13.3188 4.94043 12.2353 4.94043 10.9144V8.36701ZM13.6592 13.6414V14.3411C13.6592 14.7269 13.3516 15.0408 12.9736 15.0408H12.7979C12.4199 15.0408 12.1123 14.7269 12.1123 14.3411V13.6414H13.6592ZM19.6006 19.0235H6.1709C5.88012 19.0235 5.64355 18.7821 5.64355 18.4853V13.3517C7.21377 14.1729 8.86394 14.4895 11.0905 14.6842C11.2476 15.4999 11.9533 16.1172 12.7979 16.1172H12.9736C13.8182 16.1172 14.524 15.4998 14.681 14.6841C16.5203 14.5481 18.1807 14.2036 19.393 13.7029C19.6657 13.5903 19.9095 13.4727 20.1279 13.3516V18.4853C20.1279 18.7821 19.8914 19.0235 19.6006 19.0235Z" fill="#848382"/>
</svg>
