<svg width="24" height="23" viewBox="0 0 24 23" fill="none" xmlns="http://www.w3.org/2000/svg">
<path d="M9.86816 6.36475H12.9598M9.86816 9.898H15.6097M9.86816 13.4313H15.6097" stroke="#848382" stroke-width="1.2" stroke-linecap="round" stroke-linejoin="round"/>
<path fill-rule="evenodd" clip-rule="evenodd" d="M20.3896 14.1927C20.4674 13.4275 20.4674 12.4691 20.4674 11.2597L20.4674 8.76573C20.4676 7.84005 20.4677 7.24308 20.3067 6.67809C20.2184 6.36835 20.0947 6.0698 19.9381 5.78834C19.6525 5.27496 19.2303 4.85293 18.5756 4.19851L18.4379 4.06075C17.7835 3.40607 17.3614 2.98387 16.848 2.69824C16.5666 2.54165 16.268 2.41799 15.9583 2.32969C15.3933 2.16865 14.7963 2.16877 13.8707 2.16896L12.7384 2.16897V2.17089C11.9122 2.17584 11.2168 2.19359 10.6299 2.25717C9.79503 2.34763 9.1017 2.53717 8.50555 2.97029C8.14936 3.22908 7.83611 3.54233 7.57732 3.89852C7.3015 4.27815 7.12447 4.6972 7.00889 5.16712L6.28468 5.36117C4.04639 5.96092 2.71809 8.26161 3.31784 10.4999L5.2611 17.7523C5.86085 19.9906 8.16153 21.3189 10.3998 20.7191L15.5191 19.3474C16.4969 19.0854 17.3009 18.4989 17.8465 17.7348C18.1149 17.6412 18.3658 17.5199 18.6027 17.3616C19.0608 17.0554 19.4542 16.6621 19.7603 16.204C20.1429 15.6314 20.3098 14.9768 20.3896 14.1927ZM13.8813 3.49397L13.7733 3.49395C12.4468 3.49396 11.5026 3.49535 10.7727 3.57444C10.0505 3.65268 9.61699 3.80055 9.28435 4.04222C9.04064 4.21929 8.82632 4.43361 8.64925 4.67732C8.40758 5.00995 8.25971 5.44345 8.18147 6.16562C8.10189 6.90019 8.10098 7.85171 8.10098 9.19135V11.223C8.10098 12.4773 8.10178 13.3683 8.17201 14.0586C8.24111 14.7379 8.37192 15.1492 8.58479 15.4678C8.79424 15.7813 9.06338 16.0504 9.37684 16.2599C9.69543 16.4728 10.1067 16.6036 10.786 16.6727C11.4764 16.7429 12.3673 16.7437 13.6217 16.7437C14.8761 16.7437 15.767 16.7429 16.4574 16.6727C17.1367 16.6036 17.548 16.4728 17.8666 16.2599C18.18 16.0504 18.4492 15.7813 18.6586 15.4678C18.8715 15.1492 19.0023 14.7379 19.0714 14.0586C19.1416 13.3683 19.1424 12.4773 19.1424 11.223V9.01468C19.1424 8.57955 19.141 8.31985 19.116 8.13371C19.1045 8.04842 19.091 8.0057 19.0831 7.98646C19.0813 7.98201 19.0799 7.97908 19.079 7.97737L19.0777 7.97522L19.0756 7.97401C19.0739 7.97311 19.071 7.97169 19.0665 7.96985C19.0473 7.96194 19.0045 7.94843 18.9193 7.93696C18.7331 7.91194 18.4734 7.91053 18.0383 7.91053L17.1154 7.91053C16.7331 7.91058 16.3826 7.91062 16.0975 7.87228C15.7835 7.83007 15.4516 7.73074 15.1786 7.45777C14.9056 7.18481 14.8063 6.85292 14.7641 6.53892C14.7258 6.25378 14.7258 5.90325 14.7259 5.52094L14.7259 4.42143C14.7259 4.07545 14.7249 3.86918 14.7086 3.71852C14.699 3.62989 14.6868 3.59358 14.6823 3.58305C14.6694 3.56574 14.6541 3.5504 14.6367 3.53753C14.6262 3.533 14.5899 3.52078 14.5013 3.51118C14.3631 3.4962 14.178 3.4942 13.8813 3.49397ZM15.2016 18.0606C14.7385 18.0687 14.2262 18.0687 13.6584 18.0687H13.585C12.3755 18.0687 11.4172 18.0687 10.6519 17.9908C9.86787 17.9111 9.2133 17.7441 8.64072 17.3616C8.18258 17.0554 7.78923 16.6621 7.48311 16.204C7.10053 15.6314 6.9336 14.9768 6.85384 14.1927C6.77599 13.4275 6.77599 12.4692 6.776 11.2597V9.15204C6.77599 8.14401 6.77599 7.29938 6.81793 6.59L6.62761 6.641C5.09615 7.05135 4.18731 8.62551 4.59766 10.157L6.54093 17.4093C6.95128 18.9408 8.52543 19.8496 10.0569 19.4393L15.1762 18.0676C15.1847 18.0653 15.1932 18.063 15.2016 18.0606ZM18.7803 6.43253C18.8111 6.48789 18.8401 6.54423 18.8671 6.60144C18.6311 6.58549 18.3633 6.58552 18.0778 6.58555L17.155 6.58556C16.7198 6.58556 16.4601 6.58415 16.274 6.55912C16.1887 6.54766 16.146 6.53415 16.1268 6.52623C16.1223 6.5244 16.1194 6.52297 16.1177 6.52208L16.1155 6.52086L16.1143 6.51871C16.1134 6.51701 16.112 6.51408 16.1102 6.50962C16.1022 6.49038 16.0887 6.44767 16.0773 6.36237C16.0522 6.17624 16.0508 5.91654 16.0508 5.48141L16.0508 4.39025C16.0509 4.16781 16.0509 3.95872 16.0411 3.77221C16.0962 3.79841 16.1505 3.82638 16.2039 3.85608C16.5356 4.04065 16.8228 4.31951 17.5698 5.06654C18.3169 5.81357 18.5957 6.10078 18.7803 6.43253Z" fill="#848382"/>
</svg>
