<svg width="25" height="24" viewBox="0 0 25 24" fill="none" xmlns="http://www.w3.org/2000/svg">
<path fill-rule="evenodd" clip-rule="evenodd" d="M8.72909 9.20353L12.0745 5.3692C12.2788 5.13479 12.5751 5 12.8857 5C13.1963 5 13.4927 5.13479 13.697 5.3692L17.0424 9.20353L20.2346 7.18758C20.5921 6.96237 21.0484 6.96656 21.4016 7.1993C21.7549 7.43204 21.9391 7.85063 21.8721 8.26839L20.3552 17.7471C20.2371 18.4871 19.5983 19.0313 18.8499 19.0313H6.9216C6.17315 19.0313 5.53437 18.4871 5.41633 17.7471L3.89934 8.26839C3.83236 7.85063 4.01654 7.43204 4.36984 7.1993C4.72313 6.96656 5.1794 6.96237 5.53688 7.18758L8.72909 9.20353ZM5.20201 8.46178L6.65621 17.5486C6.67714 17.6793 6.78932 17.7755 6.9216 17.7755H18.8499C18.9822 17.7755 19.0943 17.6793 19.1153 17.5486L20.5695 8.46178L17.5832 10.3471C17.1345 10.6309 16.5459 10.5447 16.1968 10.1454L12.8857 6.34955L9.57465 10.1454C9.22554 10.5447 8.637 10.6309 8.18827 10.3471L5.20201 8.46178Z" fill="#848382"/>
<path fill-rule="evenodd" clip-rule="evenodd" d="M19.6142 14.6353C19.9608 14.6353 20.2421 14.9165 20.2421 15.2631C20.2421 15.6097 19.9608 15.891 19.6142 15.891H6.15719C5.81059 15.891 5.5293 15.6097 5.5293 15.2631C5.5293 14.9165 5.81059 14.6353 6.15719 14.6353H19.6142Z" fill="#848382"/>
</svg>
