<svg width="25" height="24" viewBox="0 0 25 24" fill="none" xmlns="http://www.w3.org/2000/svg">
<g clip-path="url(#clip0_10_402)">
<path d="M19.4464 12.4554H12.4323V5.44134C12.4323 5.1579 12.2056 4.93115 11.9221 4.93115C7.49299 4.93115 3.8877 8.53644 3.8877 12.9656C3.8877 17.3947 7.49299 21 11.9221 21C16.3513 21 19.9566 17.3947 19.9566 12.9656C19.9566 12.6859 19.726 12.4554 19.4464 12.4554ZM11.9221 19.9797C8.05608 19.9797 4.90806 16.8316 4.90806 12.9656C4.90806 9.2696 7.7802 6.23117 11.4119 5.97041V12.9656C11.4119 13.249 11.6387 13.4758 11.9221 13.4758H18.9173C18.6565 17.1075 15.6181 19.9797 11.9221 19.9797Z" fill="#848382"/>
<path d="M21.8835 11.008C21.8759 9.05795 21.1617 7.17972 19.873 5.7172C18.3462 3.99013 16.1543 3 13.849 3C13.5656 3 13.3389 3.22675 13.3389 3.51018V11.0344C13.3389 11.3179 13.5656 11.5446 13.849 11.5446H21.3733C21.6567 11.5446 21.8835 11.3179 21.8835 11.0344C21.8835 11.0269 21.8835 11.0193 21.8835 11.008ZM14.3592 10.528V4.04304C16.1808 4.17531 17.8889 5.01806 19.1058 6.39744C20.1262 7.55007 20.7308 9.00126 20.8442 10.528H14.3592Z" fill="#848382"/>
</g>
<defs>
<clipPath id="clip0_10_402">
<rect width="18" height="18" fill="white" transform="translate(3.88574 3)"/>
</clipPath>
</defs>
</svg>
